{"title":"Water World(1995)MP_4[DaScubaDude]","uid":12359311,"size":1655056860,"categoryP":"video","categoryS":"movies","magnet":"?xt=urn:btih:a67b17c04c7419ba223499e9f78e657627c792c0&amp;dn=Water+World%281995%29MP_4%5BDaScubaDude%5D&amp;tr=udp%3A%2F%2Ftracker.openbittorrent.com%3A80&amp;tr=udp%3A%2F%2Fopen.demonii.com%3A1337&amp;tr=udp%3A%2F%2Ftracker.coppersurfer.tk%3A6969&amp;tr=udp%3A%2F%2Fexodus.desync.com%3A6969","seeders":0,"leechers":0,"uploader":"dascuba","files":1,"time":1441512099,"description":"Waterworld (1995)\nPG-13  |  135 min  |  Action, Adventure, Sci-Fi  |  28 July 1995 (USA)\n6.1 Your rating:   -/10   Ratings: 6.1/10 from 132,865 users   Metascore: 56/100 \nReviews: 298 user | 89 critic | 17 from Metacritic.com\nIn a future where the polar ice-caps have melted and Earth is almost entirely submerged, a mutated mariner fights starvation and outlaw &quot;smokers,&quot; and reluctantly helps a woman and a young girl try to find dry land.\n\nDirector: Kevin Reynolds\nWriters: Peter Rader, David Twohy\nStars: Kevin Costner, Jeanne Tripplehorn, Dennis Hopper\n\nGeneral\nComplete name                            : C:Water WorldWATERWORLD_Title1.mp4\nFormat                                   : MPEG-4\nFormat profile                           : Base Media\nCodec ID                                 : isom\nFile size                                : 1.54 GiB\nDuration                                 : 2h 15mn\nOverall bit rate mode                    : Constant\nOverall bit rate                         : 1 634 Kbps\nMovie name                               : WATERWORLD\nGenre                                    : Science_Fiction\nWriting application                      : Lavf54.6.100\n\nVideo\nID                                       : 1\nFormat                                   : MPEG-4 Visual\nFormat settings, BVOP                    : No\nFormat settings, QPel                    : No\nFormat settings, GMC                     : No warppoints\nFormat settings, Matrix                  : Default (H.263)\nCodec ID                                 : 20\nDuration                                 : 2h 15mn\nBit rate mode                            : Constant\nBit rate                                 : 1 500 Kbps\nWidth                                    : 720 pixels\nHeight                                   : 404 pixels\nDisplay aspect ratio                     : 16:9\nFrame rate mode                          : Constant\nFrame rate                               : 29.970 fps\nColor space                              : YUV\nChroma subsampling                       : 4:2:0\nBit depth                                : 8 bits\nScan type                                : Progressive\nCompression mode                         : Lossy\nBits/(Pixel*Frame)                       : 0.172\nStream size                              : 1.42 GiB (92%)\nWriting library                          : Lavc54.23.100\n\nAudio\nID                                       : 2\nFormat                                   : MPEG Audio\nFormat version                           : Version 1\nFormat profile                           : Layer 3\nCodec ID                                 : 6B\nDuration                                 : 2h 15mn\nBit rate mode                            : Constant\nBit rate                                 : 128 Kbps\nChannel(s)                               : 2 channels\nSampling rate                            : 44.1 KHz\nCompression mode                         : Lossy\nStream size                              : 124 MiB (8%)\nWriting library                          : LAME3.99.5","torrent":{"xt":"urn:btih:a67b17c04c7419ba223499e9f78e657627c792c0","amp;dn":"Water+World%281995%29MP_4%5BDaScubaDude%5D","amp;tr":["udp%3A%2F%2Ftracker.openbittorrent.com%3A80","udp%3A%2F%2Fopen.demonii.com%3A1337","udp%3A%2F%2Ftracker.coppersurfer.tk%3A6969","udp%3A%2F%2Fexodus.desync.com%3A6969"],"infoHash":"a67b17c04c7419ba223499e9f78e657627c792c0","infoHashBuffer":{"type":"Buffer","data":[166,123,23,192,76,116,25,186,34,52,153,233,247,142,101,118,39,199,146,192]},"announce":[],"urlList":[]}}